<svg id="Layer_1" enable-background="new 0 0 512 512" viewBox="0 0 512 512" xmlns="http://www.w3.org/2000/svg"><g><path clip-rule="evenodd" d="m143.18 331.54h189.69v-27.98c0-7.17-5.87-13.07-13.04-13.07h-163.61c-7.17 0-13.04 5.9-13.04 13.07z" fill="#2f5274" fill-rule="evenodd"/><path clip-rule="evenodd" d="m429.79 494.73h-359.21l-23.75-44.5 15.11-62.05h367.85z" fill="#f1f1f1" fill-rule="evenodd"/><path clip-rule="evenodd" d="m429.79 431.18v16.53h-326.52c-4.56 0-8.28-3.71-8.28-8.28s3.71-8.25 8.28-8.25z" fill="#c3c3c3" fill-rule="evenodd"/><path d="m433.25 401.42c9.52 0 17.26-7.71 17.26-17.26s-7.74-17.29-17.26-17.29h-335.17c-19.96 0-38.1 8.16-51.25 21.32-13.15 13.15-21.29 31.29-21.29 51.25 0 19.98 8.14 38.13 21.29 51.28 13.15 13.11 31.29 21.28 51.25 21.28h335.17c9.52 0 17.26-7.74 17.26-17.26 0-9.55-7.74-17.29-17.26-17.29h-335.17c-10.43 0-19.93-4.28-26.82-11.17-6.89-6.92-11.17-16.41-11.17-26.84s4.28-19.93 11.17-26.82c6.89-6.92 16.38-11.2 26.82-11.2z" fill="#0593fc"/><g clip-rule="evenodd" fill-rule="evenodd"><path d="m321.87 158.69 34.53-34.53 122.94 122.97c9.5 9.5 9.5 25.03 0 34.53-9.5 9.47-25.03 9.47-34.5 0z" fill="#fea832"/><path d="m238.17 73.62h162.34v99.66h-162.34z" fill="#ffd400" transform="matrix(.707 -.707 .707 .707 6.255 262.002)"/><path d="m324.43 26.08 22.87-22.85c4.28-4.31 11.34-4.31 15.65 0l76.62 76.62c4.28 4.31 4.28 11.34 0 15.65l-22.88 22.85c-4.31 4.31-11.34 4.31-15.65 0l-76.62-76.62c-4.3-4.31-4.3-11.34.01-15.65z" fill="#fea832"/><path d="m200.92 149.59 22.88-22.85c4.31-4.31 11.34-4.31 15.65 0l76.62 76.62c4.28 4.28 4.28 11.34 0 15.65l-22.88 22.85c-4.31 4.31-11.34 4.31-15.65 0l-76.62-76.62c-4.31-4.31-4.31-11.34 0-15.65z" fill="#fea832"/></g><path d="m115.68 339.79c-4.56 0-8.25-3.69-8.25-8.25s3.69-8.25 8.25-8.25h244.69c4.56 0 8.25 3.69 8.25 8.25s-3.69 8.25-8.25 8.25z" fill="#223c55"/><path d="m114.09 366.86h-16.01c-19.96 0-38.1 8.16-51.25 21.32-13.15 13.15-21.29 31.29-21.29 51.25 0 19.98 8.14 38.13 21.29 51.28 13.15 13.12 31.29 21.29 51.25 21.29h16.02c-19.98 0-38.13-8.16-51.28-21.29-13.12-13.15-21.29-31.29-21.29-51.28 0-19.96 8.16-38.1 21.29-51.25 13.15-13.15 31.29-21.32 51.27-21.32z" fill="#0584e3"/><path clip-rule="evenodd" d="m347.07 166.17 108.34 108.34c6.77 6.77 16.61 8.7 25.14 5.81-.37.45-.79.91-1.22 1.33-9.5 9.47-25.03 9.47-34.5 0l-106.6-106.61z" fill="#e5972d" fill-rule="evenodd"/><path clip-rule="evenodd" d="m200.92 149.59 22.88-22.85.03-.06-13.55 13.58c-4.31 4.31-4.31 11.34 0 15.65l76.62 76.62c4.28 4.28 11.28 4.28 15.59.03l-9.3 9.3c-4.31 4.31-11.34 4.31-15.65 0l-76.62-76.62c-4.31-4.31-4.31-11.34 0-15.65z" fill="#e5972d" fill-rule="evenodd"/><path clip-rule="evenodd" d="m161.74 323.29v-19.73c0-7.17 5.87-13.07 13.04-13.07h-18.57c-7.17 0-13.04 5.9-13.04 13.07v19.73z" fill="#26435e" fill-rule="evenodd"/></g></svg>